<svg viewBox="0 0 927 1367" fill="none" xmlns="http://www.w3.org/2000/svg"><g clip-path="url(#a)"><path d="M532.599 132.285c-10.44 3.758-40.969-6.399-49.131-27.233-4.671-11.92-2.019-26.728 0-32.784l65.358-3.967-2.297 19.628c3.272.14 11.276 3.853 11.276 11.485 0 17.312-16.078 16.079-16.078 16.079.765 4.524-.775 13.785-9.128 16.792Z" fill="#FF8C7C"/><path d="M550.867 124.019c-3.643.089-8.184-2.185-10-3.333l.667-5.221c8.569 0 12.242-4.111 14.998-8.999 2.755-4.888-.704-11.442-2.778-14.109 2.037-.111 7.332-.133 12.221.667 6.11 1 6.887 3.11 9.887 4.221 2.4.89 5.666 3.703 6.999 5l9.052 3.292c1.481-.185 4.59.041 5.835.929 1.244.889.518 2.667 0 3.444 1 .63 2.733 2.267 1.666 3.777-1.066 1.511-5.555-.111-7.665-1.111l-27.996 3.666c4.649 3.62 11.415 4.3 12.926 5.366 1.888 1.334 4.738 3.522 1.072 5.522-3.667 1.999-17.887-3.111-19.553-3.111-1.666 0-2.777-.111-7.331 0Z" fill="url(#b)"/><path d="m711.247 117.996-78.94 78.895a4 4 0 0 1-4.832.632l-6.294-3.643s.723-7.164.723-11.07c0-4.904 13.183-12.336 12.134-15.127-.778-2.07-10.057 1.247-15.875 3.158 4.405-3.158 15.656-14.745 15.293-15.542-.487-1.071-2.976-.988-4.069-2.089 3.546-4.771 3.166-7.684-3.81-5.026-3.03 1.522-3.916-1.18-6.001-1.529-3.803-.191-7.562 1.921-11.552 4.488-.931-1.59-1.178-2.892-2.161-3.74-2.333-2.01-7.999 7.527-9.808 9.891-8.394 10.971-8.509 17.115-8.509 17.115l-81.469-47.162c-2.156-1.248 12.759 7.723 24.467 6.284 7.233-.888 9.752-7.642 10.621-12.676 5.193 3.133 15.247 3.133 15.247 3.133s18.79 4.345 21.538 3.71c6.074-6.305-4.39-5.685-12.701-10.116-3.838-2.047 27.65-5.283 33.269-4.159 1.81.362.15-5.824-1.354-6.918-1.03-.748-4.382-.1-5.614-.932 1.376-.374-13.6-6.31-20.772-10.674-5.004-2.273-11.383-2.137-16.732-2.137-3.193-3.177-7.27-4.802-7.27-4.802l.62-3.965 32.723-29.68a4 4 0 0 1 4.301-.662l125.64 57.865c2.553 1.149 3.167 4.498 1.187 6.478Z" fill="#E1F1DF"/><path d="M441.867 125.218s35.339-16.467 43.228-15.903c2.629 2.817 10.414 11.721 22.622 17.919-1.502 1.502-19.429 10.253-22.622 12.319-2.555 1.653-33.822-8.063-43.228-14.335Z" fill="url(#c)"/><path d="M163.282 348.623c-4.234 0-8.417-2.178-9.415-5.763 23.889-12.516 73.417-36.82 80.421-33.902 7.004 2.919 44.747 58.123 62.744 85.361l20.428-51.8c-14.485-29.287-20.428-59.534-20.428-72.958 0-16.78 16.78-33.561 23.833-41.1 5.642-6.031 27.805-16.618 38.181-21.157 11.336-14.155 24.771-28.897 32.795-38.787 8.764-10.803 39.676-42.44 48.431-45.358 8.755-2.919 33.519 2.135 50.786 7.242 17.266 5.107 56.544 21.066 63.272 40.72 4.474 13.072 9.206 48.554 11.012 64.661l24.72-41.338c-.745-6.936-3.457-19.074-1.816-25.278 1.148-4.339 10.685-18.835 14.933-23.023 2.617-2.58 6.358-.465 4.619 4.17 2.746-1.583 8.91-4.805 11.591-5.028 2.682-.224 3.396 2.109 3.07 3.226 2.56-1.35 7.432-3.701 9.22-1.69 1.788 2.011-2.328 5.214-4.609 6.564 1.909-.372 5.726-.614 5.726 1.397s-10.055 11.731-15.083 16.339c5.075-2.234 15.083-7.014 16.48-3.91 1.005 2.234-4.33 5.214-7.123 6.424l-5.297 8.086c.238-.319-1.081 5.567-2.937 19.884-1.921 14.816-12.95 41.038-18.364 53.469-5.862 13.459-19.716 46.741-35.546 47.637-17.771 1.006-22.13-5.365-26.489-12.071-3.487-5.365-18.066-59.293-26.414-82.164-21.884 15.75-75.206 58.216-87.698 70.209-6.484 12.743-20.324 43.478-25.465 55.756 6.138 18.351 18.598 55.306 20.339 60.181 1.742 4.876 5.878 21.11 7.02 29.963-.508 3.974-4.211 13.19-14.965 18.263-10.755 5.073-55.21 10.568-76.093 12.682-6.543 8.561-17.727 24.637-28.577 25.505-2.121.169-10.354-2.403-14.205-3.71-5.293-1.381-10.919-5.089-18.975-14.417-25.123 3.643-72.475 8.969-81.974 14.668-4.602 2.762-12.657 3.644-16.109 3.74 13.041-17.643 39.237-54.598 39.698-61.272.46-6.674 12.2-4.027 25.314-4.027-15.055-21.906-37.344-65.537-51.145-68.892-6.711-1.632-21.672 1.498-25.906 1.498Z" fill="url(#d)"/><path d="M189.867 478.584c3.85-3.632 37.708-20.102 49.381-31.181 1.576-1.496 3.422-2.662 5.584-2.885 2.833-.292 7.274-.672 12.943-1.149m125.842-77.068c8.876 24.064 8.876 41.421 8.876 45.761 10.541 2.918 7.089 5.803-1.468 4.733-10.698-1.337-9.354 4.352-2.011 4.352 16.3 0 12.3 8.481 2.011 5.905-12.954 2.689-27.622 5.021-42.584 7.035" stroke="#0C0C0D" stroke-width="2" stroke-linecap="round" stroke-linejoin="round"/><path d="M225.852 434.648c6.816-7.717 2.04-16.57-7.49-16.343-9.531.227-35.65 38.814-41.55 48.347-5.899 9.533-7.256 15.888.008 14.98 7.263-.908 43.721-40.971 49.032-46.984Z" fill="#0C0C0D"/><path d="m364.867 406.301 9.786 7.343" stroke="#0C0C0D" stroke-width="2" stroke-linecap="round"/><path d="M512.919 112.309c-8.919 5.645-22.945 5.281-29.318-7.283-4.952-7.72-2.063-27.01 0-35.689 21.486-3.217 64.712-8.995 65.732-6.373 1.02 2.622-1.396 17.966-2.731 25.31-.486-.121-2.659-.291-7.466 0-6.009.364-17.298 18.391-26.217 24.035Z" fill="#7F52FF" fill-opacity=".4"/><path d="M546.867 88.031c1.465-9.715 4.167-30.463 3.252-35.73" stroke="#0C0C0D" stroke-width="2"/><path d="M541.867 120.933c7.724 4.634 12.817 1.938 18.474 3.335 10.623 2.623 19.438 5.502 19.438 0 0-3.585-9.993-3.022-15.757-8.264 10.051-.923 21.817-2.659 28.073-3.754 8.289-1.451 8.12-6.267 3.715-6.267-.593 0-1.369.016-2.3.048m0 0c-4.702.161-13.343.716-22.1 1.546m22.1-1.546c-4.075-2.635-6.327-2.822-9.916-3.584m-6.149-4.382c-2.548-2.67-10.665-6.768-22.64-5.54m28.789 9.922c-3.188 0-9.776-1.019-12.965-1.019m12.965 1.019c-.808-3.206-9.456-6.124-15.809-6.124" stroke="#0C0C0D" stroke-width="2" stroke-linecap="round" stroke-linejoin="round"/><path d="M538.291 89.496a13.518 13.518 0 0 1 5.577-1.195c7.494 0 13.569 6.075 13.569 13.569 0 7.494-6.075 13.569-13.569 13.569-1.988 0-3.876-.427-5.577-1.195-.706-1.387-2.178-4.837-2.424-7.539" stroke="#0C0C0D" stroke-width="2" stroke-linecap="round" stroke-linejoin="round"/><path d="M394.732 327.443c-2.038 2.406-4.136 3.613-5.734 3.008-2.976-1.126-3.092-8.108-.26-15.594 2.833-7.487 7.542-12.643 10.518-11.517 1.939.733 2.943 3.614 2.045 8.912" stroke="#FAA" stroke-width="2"/><path d="m463.867 147.924 10.406-6.623" stroke="#0C0C0D" stroke-width="2" stroke-linecap="round" stroke-linejoin="round"/><path d="M597.373 262.497c-14.32 34.122-26.586 41.153-35.978 41.152-13.346 0 12.575-26.099 25.876-49.504 13.301-23.405 28.716-60.08 33.16-58.215 0 2.175-5.753 28.425-23.058 66.567Z" fill="url(#e)"/><path d="M409.256 171.75c5.309 10.347 17.567 16.557 32.147 16.293 9.272-10.611 11.691-23.497 6.383-33.844-14.58.264-29.258 6.941-38.53 17.551Z" fill="#7F52FF"/><path d="M332.822 221.308c10.864-2.131 21.122-5.956 26.625-8.21 2.614-1.07 5.603-.819 7.948.754 10.19 6.836 25.201 16.493 32.001 20.605 6.831 4.13 4.466 22.503 5.823 41.018.356 4.851.258 9.763-1.179 14.41-1.177 3.805-2.695 8.172-4.564 13.283m-10.93 27.975c-17.857 42.635-43.492 94.501-51.803 100.437-6.664-6.967-11.63-3.433-9.611 0 3.407 5.791 11.766 3.421 10.317 9.895-.519 2.319-3.433.707-7.471-1.211-2.525 7.37-6.852 23.714-22.936 5.716-20.104-22.498-64.448-100.845-74.979-105.632-7.087-3.221-31.135 3.356-50.899 6.52" stroke="url(#f)" stroke-width="2" stroke-linecap="round" stroke-linejoin="round"/><path d="M567.729 254.082c-6.719-39.941-6.047-61.517-13.809-83.615-9.309-26.499-79.43-49.564-109.835-48.1-2.436.117-4.764.832-6.819 2.147-19.554 12.517-57.654 57.088-77.902 82.453-17.408 10.586-49.628 18.45-61.332 55.143-5.176 16.225 7.928 59.719 19.08 80.211" stroke="#0C0C0D" stroke-width="2" stroke-linecap="round"/><path d="M318.013 426.118c-11.061-18.907-73.299-105.616-77.087-111.026-8.27-11.815-19.595-8.331-32.021-2.635-30.461 13.96-60.117 27.253-54.303 33.075 4.617 4.624 14.068 3.148 23.761 1.607 9.111-1.448 17.823 2.762 23.087 10.337 28.179 40.555 61.087 96.908 80.252 114.875 4.704 4.409 12.191 5.928 21.554 8.916 33.287 10.622 112.466-191.636 121.342-201.994 7.101-8.287 61.165-50.314 87.309-70.291 9.936 29.125 22.834 75.051 26.121 82.131 3.427 7.38 13.735 15.591 31.271 10.906 17.537-4.685 46.914-80.673 50.589-102.722 1.768-10.605 1.768-13.896 1.768-17.138 1.428-2.489 3.385-5.484 5.183-7.531 5.641-3.23 7.881-4.683 6.852-7.226-.46-1.135-3.612-.929-6.298 0-3.803 1.315-8.221 3.864-9.627 5.449-2.849-.891 14.516-14.103 15.023-16.64.507-2.538-2.122-3.131-6.496-1.561 1.402-1.39 5.601-3.874 5.601-5.483 0-3.049-1.727-2.807-5.021-1.674-5.397 1.857-22.276 11.891-28.389 20.788m23.172-18.354c2.005-3.837-2.439-4.596-6.523-2.434-5.8 3.069-24.275 11.332-27.645 27.046 0 7.718 1.69 12.653 2.458 20.313-2.942 6.728-16.906 29.496-24.758 42.123" stroke="#0C0C0D" stroke-width="2" stroke-linecap="round" stroke-linejoin="round"/><path d="M589.867 195.301c2.722 1.361 9.899 4.72 11.818 4.912" stroke="#0C0C0D" stroke-width="2" stroke-linecap="round" stroke-linejoin="round"/><path d="M547.845 268.301h-15.978c.66 3.242 2.747 11.921 5.814 20.706 3.833 10.981 13.674 14.814 25.588 13.985 9.381-.652 17.183-8.18 21.734-17.077-8.706 10.322-21.327 13.357-26.546 6.601-2.596-3.362-4.832-12.975-6.682-20.934l-.048-.205a3.98 3.98 0 0 0-3.882-3.076Z" fill="#0C0C0D" fill-opacity=".2"/><path d="M626.584 154.301c-4.115 1.947-8.968 4.333-16.717 14.174M297.867 394.971l34.533-91.67" stroke="#0C0C0D" stroke-width="2" stroke-linecap="round"/><path d="M197.033 330.663c-12.867 4.709-36.732 14.754-42.379 13.813-7.537-5.336 41.117-27.939 58.696-33.903 17.579-5.964 26.173-3.222 21.98 3.767-3.767 6.278-25.43 11.615-38.297 16.323Z" fill="#0C0C0D"/><path d="M400.411 320.364c-1.777 4.697-4.731 7.932-6.598 7.225-1.867-.706-1.94-5.087-.163-9.784 1.777-4.697 4.731-7.931 6.598-7.225 1.867.706 1.94 5.087.163 9.784Z" stroke="#FFBD00" stroke-width="2"/><path d="M561.671 211.993c1.221 9.095-8.99 12.191-12.338 3.004-3.834-10.523-9.519-35.854-7.757-41.827 1.762-5.973 10.218-5.737 13.751 1.729" stroke="#0C0C0D" stroke-width="2" stroke-linecap="round" stroke-linejoin="round"/><path d="M248.701 359.762c-1.993 1.415-5.5-.102-7.832-3.388s-2.606-7.096-.612-8.511c1.993-1.415 5.5.102 7.832 3.387 2.332 3.286 2.606 7.097.612 8.512Z" stroke="#FDA9AD" stroke-width="2"/><path d="M541.471 115.433c-.665 5.062-.166 19.366-15.933 17.748-15.766-1.617-38.61-15.959-42.444-28.407-5.331-17.31.46-32.432 1.42-39.473" stroke="#0C0C0D" stroke-width="2"/><path d="M514.372 32.425c8.488 2.286 26.184 0 33.564 8.2 6.351 7.056 3.001 20.787 2.121 28.492-10.997 5.021-35.569 15.178-48.842 15.178-13.272 0-18.722-9.42-19.167-13.806l2.309-13.452c-4.316 0-13.488-2.235-13.49-7.957-.002-8.011 6.043-8.455 18.336-9.79-8.206-3.321-6.261-9.907-3.102-10.646 3.452-.808 12.631-.431 28.271 3.781Z" fill="#0C0C0D"/><path fill-rule="evenodd" clip-rule="evenodd" d="M483.986 58.99c2.91-.065 6.298-.57 8.638-.954-.067.23-.11.47-.128.718-.093 1.269.466 2.615 1.523 3.726 2.14 2.251 6.376 3.668 12.641 2.297 3.248-.71 5.992-1.313 8.256-1.813-.087 1.054.416 2.058 1.091 2.837 2.87 3.311 7.582 3.413 11.514 2.47 6.799-1.631 13.15-5.256 19.058-8.867a1 1 0 1 0-1.043-1.706c-5.727 3.5-11.888 7.046-18.481 8.628-3.183.763-7.177.888-9.536-1.835-.524-.604-.908-1.425-.224-2.052 3.047-.674 4.891-1.087 5.638-1.257a1 1 0 1 0-.444-1.95c-1.382.314-6.574 1.473-16.257 3.592-5.839 1.277-9.263-.143-10.764-1.722-.764-.804-1.02-1.621-.978-2.202.039-.532.322-.948.923-1.149.56-.186 1.196-.408 1.261-1.09.096-1.008-.891-1.16-1.632-1.052-.638.093-1.9.32-3.345.551-2.26.36-5.085.75-7.516.824l-.195 2.005Z" fill="#011C6C"/><path d="M592.613 112.32c3.405 1.284 5.353 1.615 6.454.972 1.172-.683.88-1.665-.934-3.418" stroke="#0C0C0D" stroke-width="2" stroke-linecap="round" stroke-linejoin="round"/><path d="M240.319 416.714c-4.579.145-15.086-.673-16.216-.878-10.44-1.893-21.98 18.232-29.277 28.459-7.297 10.227-26.695 31.418-20.89 36.27 2.526 2.112 13.921.191 18.665-3.852 19.639-5.654 49.275-9.878 80.955-13.674m125.261-128.738c15.659 45.369 29.374 83.775 27.125 92.765-.877 3.504-7.517 14.312-18.302 17.229-17.201 4.653-43.697 8.283-72.879 11.723" stroke="#0C0C0D" stroke-width="2" stroke-linecap="round"/><path d="M396.69 320.301c22.545 66.436 37.995 207.63-53.097 241-113.865 41.713-174.392-38.561-220.386 23.87-43.624 59.214 37.456 137.996 17.25 188.512a49.849 49.849 0 0 1-1.662 3.706m0 0c-19.73 39.556-86.622 41.229-64.061 5.074 10.79-17.291 38.968-16.707 64.061-5.074Zm0 0c21.443 9.941 40.633 27.951 44.789 49.77 9.019 47.35-156.207 61.277-123.513 112.009 32.695 50.733 267.475-18.616 225.883 15.577C237.96 994.2-36.51 1007.86 4.08 1069.87c38.147 58.27 417.538-158.845 352.623 7.32-9.813 25.12-29.648 44.87-52.149 59.73C144.002 1243 27.071 1293.63 92.374 1354.18c89.616 83.09 443.241-275.37 500.007-144.4m0 0c1.202 2.77 2.27 5.76 3.201 8.98 32.064 110.97-161.822 155.55-123.587 88.44 19.267-33.81 62.496-67.46 120.386-97.42Zm0 0c108.093-55.95 267.3-99.05 417.069-106.39" stroke="url(#g)" stroke-width="2" stroke-linecap="round" stroke-linejoin="round"/><path d="M396.69 320.301c22.545 66.436 37.995 207.63-53.097 241-113.865 41.713-174.392-38.561-220.386 23.87-43.624 59.214 37.456 137.996 17.25 188.512a49.849 49.849 0 0 1-1.662 3.706m0 0c-19.73 39.556-86.622 41.229-64.061 5.074 10.79-17.291 38.968-16.707 64.061-5.074Zm0 0c21.443 9.941 40.633 27.951 44.789 49.77 9.019 47.35-156.207 61.277-123.513 112.009 32.695 50.733 267.475-18.616 225.883 15.577C237.96 994.2-36.51 1007.86 4.08 1069.87c38.147 58.27 417.538-158.845 352.623 7.32-9.813 25.12-29.648 44.87-52.149 59.73C144.002 1243 27.071 1293.63 92.374 1354.18c89.616 83.09 443.241-275.37 500.007-144.4m0 0c1.202 2.77 2.27 5.76 3.201 8.98 32.064 110.97-161.822 155.55-123.587 88.44 19.267-33.81 62.496-67.46 120.386-97.42Zm0 0c108.093-55.95 267.3-99.05 417.069-106.39" stroke="url(#h)" stroke-width="2" stroke-linecap="round" stroke-linejoin="round"/><circle cx="366.713" cy="48.729" r="48.729" fill="url(#i)"/><circle cx="366.281" cy="49.296" r="26.406" stroke="#fff" stroke-width="2"/><path d="M371.875 52.51v-3.62M385.875 51.51v-3.62" stroke="#fff" stroke-width="2"/></g><defs><linearGradient id="b" x1="570.308" y1="92.301" x2="570.308" y2="127.594" gradientUnits="userSpaceOnUse"><stop stop-color="#ECA1BD"/><stop offset="1" stop-color="#A67DFF"/></linearGradient><linearGradient id="c" x1="485.586" y1="109.329" x2="476.355" y2="124.643" gradientUnits="userSpaceOnUse"><stop stop-color="#CB90DD"/><stop offset="1" stop-color="#622BFF" stop-opacity=".33"/></linearGradient><linearGradient id="e" x1="586.087" y1="254.734" x2="612.224" y2="269.9" gradientUnits="userSpaceOnUse"><stop offset=".109" stop-color="#0C0C0D" stop-opacity="0"/><stop offset=".469" stop-color="#011C70" stop-opacity=".75"/></linearGradient><linearGradient id="f" x1="373.436" y1="279.59" x2="246.371" y2="406.654" gradientUnits="userSpaceOnUse"><stop stop-color="#FDA9AD"/><stop offset="1" stop-color="#021C73"/></linearGradient><linearGradient id="g" x1="374.653" y1="1244.17" x2="457.897" y2="367.796" gradientUnits="userSpaceOnUse"><stop stop-color="#167DFF"/><stop offset="1" stop-color="#FFBD00"/></linearGradient><linearGradient id="h" x1="526" y1="1244" x2="923.5" y2="1110.5" gradientUnits="userSpaceOnUse"><stop offset=".161" stop-opacity="0"/><stop offset="1"/></linearGradient><radialGradient id="d" cx="0" cy="0" r="1" gradientUnits="userSpaceOnUse" gradientTransform="rotate(69.308 143.308 476.06) scale(139.103 392.272)"><stop stop-color="#FAA"/><stop offset=".443" stop-color="#A67DFF"/><stop offset="1" stop-color="#003CB7"/></radialGradient><radialGradient id="i" cx="0" cy="0" r="1" gradientUnits="userSpaceOnUse" gradientTransform="rotate(90.838 159.346 205.057) scale(44.1363)"><stop offset=".08" stop-color="#00FDFF"/><stop offset="1" stop-color="#17E6E8" stop-opacity="0"/></radialGradient><clipPath id="a"><path fill="#fff" d="M0 0h927v1367H0z"/></clipPath></defs></svg>