<?xml version="1.0" encoding="utf-8"?>
<svg width="48px" height="48px" viewBox="0 0 48 48" version="1.1" xmlns:xlink="http://www.w3.org/1999/xlink" xmlns="http://www.w3.org/2000/svg">
  <defs>
    <path d="M48 0L48 0L48 48L0 48L0 0L48 0Z" id="path_1" />
    <clipPath id="clip_1">
      <use xlink:href="#path_1" clip-rule="evenodd" fill-rule="evenodd" />
    </clipPath>
  </defs>
  <g id="Ethereum" clip-path="url(#clip_1)">
    <path d="M48 0L48 0L48 48L0 48L0 0L48 0Z" id="Ethereum" fill="none" stroke="none" />
    <path d="M11 24L25 2L39 24L25 32L11 24L11 24Z" id="Shape" fill="#7880E7" stroke="none" />
    <path d="M25 2L39 24L25 32L25 2L25 2Z" id="Shape" fill="#5C64C7" stroke="none" />
    <path d="M11 27L25 35L39 27L25 46L11 27L11 27Z" id="Shape" fill="#7880E7" stroke="none" />
    <path d="M25 35L39 27L25 46L25 35L25 35ZM11 24L25 18L39 24L25 32L11 24L11 24Z" id="Shape" fill="#5C64C7" fill-rule="evenodd" stroke="none" />
    <path d="M25 18L39 24L25 32L25 18L25 18Z" id="Shape" fill="#2A3192" stroke="none" />
  </g>
</svg>