<?xml version="1.0" encoding="utf-8"?>
<svg width="48px" height="48px" viewBox="0 0 48 48" version="1.1" xmlns:xlink="http://www.w3.org/1999/xlink" xmlns="http://www.w3.org/2000/svg">
  <defs>
    <path d="M48 0L48 0L48 48L0 48L0 0L48 0Z" id="path_1" />
    <clipPath id="clip_1">
      <use xlink:href="#path_1" clip-rule="evenodd" fill-rule="evenodd" />
    </clipPath>
  </defs>
  <g id="Javascript" clip-path="url(#clip_1)">
    <path d="M48 0L48 0L48 48L0 48L0 0L48 0Z" id="Javascript" fill="none" stroke="none" />
    <path d="M6 42L6 6L42 6L42 42L6 42L6 42Z" id="Shape" fill="#FFD600" stroke="none" />
    <path d="M29.538 32.947C30.23 34.071 30.982 35.148 32.575 35.148C33.913 35.148 34.615 34.483 34.615 33.563C34.615 32.462 33.889 32.071 32.417 31.43L31.61 31.086C29.281 30.098 27.732 28.86 27.732 26.245C27.732 23.835 29.577 22.001 32.46 22.001C34.513 22.001 35.988 22.712 37.052 24.574L34.538 26.181C33.985 25.193 33.387 24.804 32.46 24.804C31.514 24.804 30.915 25.401 30.915 26.181C30.915 27.145 31.515 27.535 32.9 28.132L33.707 28.476C36.452 29.645 38 30.839 38 33.523C38 36.415 35.716 38 32.65 38C29.651 38 27.948 36.495 27 34.632L29.538 32.947L29.538 32.947ZM17.952 33.029C18.458 33.935 19.227 34.632 20.333 34.632C21.391 34.632 22 34.214 22 32.589L22 22L25.333 22L25.333 33.101C25.333 36.468 23.38 38 20.528 38C17.951 38 16.091 36.254 15.333 34.632L17.952 33.029L17.952 33.029Z" id="Shape" fill="#000001" fill-rule="evenodd" stroke="none" />
  </g>
</svg>