<?xml version="1.0" encoding="utf-8"?>
<svg width="48px" height="48px" viewBox="0 0 48 48" version="1.1" xmlns:xlink="http://www.w3.org/1999/xlink" xmlns="http://www.w3.org/2000/svg">
  <defs>
    <path d="M48 0L48 0L48 48L0 48L0 0L48 0Z" id="path_1" />
    <clipPath id="clip_1">
      <use xlink:href="#path_1" clip-rule="evenodd" fill-rule="evenodd" />
    </clipPath>
  </defs>
  <g id="React" clip-path="url(#clip_1)">
    <path d="M48 0L48 0L48 48L0 48L0 0L48 0Z" id="React" fill="none" stroke="none" />
    <path d="M28.2 24C28.2 26.322 26.322 28.2 24 28.2C21.678 28.2 19.8 26.322 19.8 24C19.8 21.678 21.678 19.8 24 19.8C26.322 19.8 28.2 21.678 28.2 24L28.2 24Z" id="Shape" fill="#98CCFD" stroke="none" />
    <path d="M24 28.8C21.3528 28.8 19.2 26.6472 19.2 24C19.2 21.3528 21.3528 19.2 24 19.2C26.6472 19.2 28.8 21.3528 28.8 24C28.8 26.6472 26.6472 28.8 24 28.8L24 28.8ZM24 20.4C22.0152 20.4 20.4 22.0152 20.4 24C20.4 25.9848 22.0152 27.6 24 27.6C25.9848 27.6 27.6 25.9848 27.6 24C27.6 22.0152 25.9848 20.4 24 20.4L24 20.4Z" id="Shape" fill="#4788C7" fill-rule="evenodd" stroke="none" />
    <g id="Group" transform="translate(0 2.4177246)">
      <path d="M47.4 21.5823C47.4 18.2271 43.9056 15.3039 38.4096 13.4379C39.1008 10.2327 39.1956 7.37187 38.6088 5.18067C38.1192 3.35427 37.1916 2.04027 35.8536 1.27707C35.0484 0.818675 34.128 0.584675 33.1188 0.584675C30.4704 0.584675 27.2472 2.26587 24.0024 5.13387C20.7552 2.26468 17.5308 0.582275 14.88 0.582275C13.8696 0.582275 12.9504 0.815075 12.1452 1.27468C10.8072 2.03908 9.8784 3.35428 9.39 5.18188C8.8032 7.37308 8.898 10.2339 9.588 13.4379C4.0944 15.3039 0.600001 18.2283 0.600001 21.5823C0.600001 24.9363 4.0944 27.8607 9.5892 29.7255C8.898 32.9295 8.8032 35.7903 9.3912 37.9815C9.8796 39.8103 10.8084 41.1243 12.1476 41.8899C12.9528 42.3483 13.8732 42.5823 14.8824 42.5823C14.8836 42.5823 14.8824 42.5823 14.8836 42.5823C17.5332 42.5823 20.7564 40.9011 24.0012 38.0307C27.246 40.8975 30.4692 42.5775 33.1176 42.5787C33.1188 42.5787 33.1188 42.5787 33.1188 42.5787C34.1292 42.5787 35.0484 42.3459 35.8548 41.8863C37.1916 41.1231 38.1192 39.8091 38.6076 37.9827C39.1944 35.7915 39.0996 32.9307 38.4096 29.7267C43.9044 27.8619 47.4 24.9375 47.4 21.5823L47.4 21.5823ZM34.6656 3.36266C35.4264 3.79706 35.9736 4.61786 36.2904 5.80226C36.7716 7.59746 36.6768 10.0131 36.1008 12.7503C34.1856 12.2499 32.0892 11.8695 29.8512 11.6247C28.5192 9.82226 27.1284 8.19866 25.7232 6.77546C28.5996 4.27106 31.2408 2.98586 33.1188 2.98586C33.7068 2.98586 34.2264 3.11307 34.6656 3.36266L34.6656 3.36266ZM30.9408 25.5267C30.1572 26.8671 29.352 28.1091 28.5372 29.2695C27.0912 29.3955 25.5768 29.4639 23.9988 29.4639C22.4196 29.4639 20.9052 29.3943 19.458 29.2695C18.6432 28.1091 17.838 26.8671 17.0544 25.5267C16.2912 24.2187 15.6 22.8975 14.9772 21.5823C15.6 20.2683 16.2912 18.9459 17.0556 17.6379C17.8392 16.2975 18.6456 15.0555 19.4604 13.8939C20.9064 13.7679 22.422 13.6995 24 13.6995C25.578 13.6995 27.0924 13.7679 28.5372 13.8939C29.352 15.0555 30.1572 16.2963 30.9408 17.6367C31.7052 18.9447 32.3976 20.2671 33.0204 21.5811C32.3976 22.8975 31.7052 24.2187 30.9408 25.5267L30.9408 25.5267ZM34.2696 24.4527C34.7616 25.6959 35.1768 26.9151 35.5188 28.0947C34.3308 28.4043 33.0504 28.6683 31.686 28.8807C32.1384 28.1823 32.5836 27.4719 33.0132 26.7363C33.4572 25.9779 33.8712 25.2159 34.2696 24.4527L34.2696 24.4527ZM24 34.7619C23.1252 33.8763 22.2396 32.8947 21.354 31.7979C22.2228 31.8387 23.1024 31.8639 24 31.8639C24.8964 31.8639 25.776 31.8387 26.6436 31.7979C25.7592 32.8947 24.8748 33.8775 24 34.7619L24 34.7619ZM16.3116 28.8807C14.9484 28.6683 13.668 28.4043 12.48 28.0947C12.822 26.9151 13.236 25.6971 13.728 24.4539C14.1264 25.2159 14.5404 25.9791 14.9832 26.7375C15.4128 27.4719 15.8592 28.1823 16.3116 28.8807L16.3116 28.8807ZM13.728 18.7107C13.236 17.4675 12.822 16.2495 12.48 15.0699C13.668 14.7603 14.9484 14.4963 16.3128 14.2839C15.8604 14.9823 15.414 15.6927 14.9844 16.4271C14.5404 17.1867 14.1264 17.9487 13.728 18.7107L13.728 18.7107ZM24.0012 8.40388C24.876 9.28828 25.7604 10.2699 26.6436 11.3667C25.776 11.3259 24.8964 11.3007 24 11.3007C23.1036 11.3007 22.224 11.3259 21.3564 11.3667C22.2408 10.2699 23.1264 9.28828 24.0012 8.40388L24.0012 8.40388ZM33.0132 16.4271C32.5836 15.6915 32.1384 14.9811 31.686 14.2827C33.0504 14.4951 34.3308 14.7591 35.5188 15.0687C35.1768 16.2495 34.7616 17.4675 34.2696 18.7119C33.8712 17.9499 33.4572 17.1867 33.0132 16.4271L33.0132 16.4271ZM11.7084 5.80348C12.0264 4.61668 12.5736 3.79468 13.3344 3.35908C13.7736 3.10948 14.2932 2.98228 14.88 2.98228C16.7604 2.98228 19.4016 4.26868 22.2792 6.77548C20.8728 8.19988 19.4808 9.82228 18.1476 11.6259C15.9096 11.8707 13.8132 12.2523 11.898 12.7527C11.322 10.0131 11.2272 7.59748 11.7084 5.80348L11.7084 5.80348ZM3 21.5823C3 19.5075 5.6772 17.3031 10.1796 15.7539C10.722 17.6319 11.4456 19.5927 12.336 21.5823C11.4456 23.5719 10.722 25.5327 10.1796 27.4107C5.6772 25.8615 3 23.6571 3 21.5823L3 21.5823ZM14.8812 40.1823C14.2932 40.1823 13.7724 40.0551 13.3356 39.8067C12.5724 39.3711 12.0252 38.5491 11.7084 37.3623C11.2272 35.5671 11.322 33.1515 11.898 30.4143C13.8132 30.9147 15.9084 31.2951 18.1464 31.5399C19.4796 33.3435 20.8716 34.9671 22.2792 36.3915C19.4016 38.8971 16.7604 40.1823 14.8812 40.1823L14.8812 40.1823ZM36.2892 37.3623C35.9712 38.5467 35.4252 39.3675 34.6644 39.8019C34.2264 40.0515 33.7056 40.1787 33.1176 40.1787C31.2384 40.1787 28.5972 38.8935 25.7208 36.3903C27.1272 34.9659 28.518 33.3423 29.85 31.5399C32.088 31.2951 34.1832 30.9135 36.0984 30.4143C36.6756 33.1515 36.7704 35.5671 36.2892 37.3623L36.2892 37.3623ZM37.818 27.4119C37.2756 25.5339 36.552 23.5731 35.6616 21.5823C36.552 19.5915 37.2756 17.6307 37.818 15.7527C42.3216 17.3019 45 19.5075 45 21.5823C45 23.6571 42.3216 25.8627 37.818 27.4119L37.818 27.4119Z" id="Shape" fill="#98CCFD" fill-rule="evenodd" stroke="none" />
      <path d="M14.8824 43.1823C13.7664 43.1823 12.7464 42.9231 11.8488 42.4119C10.3644 41.5623 9.342 40.1247 8.8104 38.1363C8.244 36.0219 8.2752 33.2595 8.8944 30.1179C3.2328 28.0863 0 24.9927 0 21.5823C0 18.1719 3.2328 15.0783 8.8944 13.0455C8.274 9.90506 8.244 7.14146 8.8104 5.02706C9.342 3.03986 10.3644 1.60226 11.8476 0.75386C14.8716 -0.97174 19.2612 0.28226 24.0012 4.33946C28.74 0.285859 33.126 -0.966941 36.1512 0.756259C37.6332 1.60226 38.6556 3.03866 39.1884 5.02586C39.7548 7.14146 39.7236 9.90506 39.1032 13.0455C44.766 15.0771 48 18.1719 48 21.5823C48 24.9927 44.766 28.0875 39.1032 30.1203C39.7248 33.2607 39.7536 36.0231 39.1872 38.1387C38.6556 40.1259 37.6344 41.5623 36.1524 42.4083C33.1248 44.1339 28.7352 42.8775 24 38.8263C20.6688 41.6787 17.5248 43.1823 14.8824 43.1823L14.8824 43.1823ZM14.88 1.18228C13.9764 1.18228 13.1556 1.38868 12.4428 1.79548C11.2476 2.47948 10.416 3.67108 9.9708 5.33668C9.4212 7.38508 9.4932 10.1427 10.176 13.3119L10.2888 13.8351L9.7824 14.0079C4.3272 15.8583 1.2 18.6195 1.2 21.5823C1.2 24.5451 4.3272 27.3063 9.7812 29.1579L10.2876 29.3307L10.1748 29.8539C9.492 33.0231 9.42 35.7807 9.9696 37.8291C10.4148 39.4959 11.2464 40.6875 12.444 41.3715C13.158 41.7759 13.9776 41.9823 14.8812 41.9823L14.8824 41.9823C17.2968 41.9823 20.3928 40.4199 23.6028 37.5819L24 37.2303L24.3972 37.5819C27.606 40.4163 30.7032 41.9787 33.1176 41.9787C34.0224 41.9787 34.8432 41.7723 35.5584 41.3655C36.7512 40.6839 37.5828 39.4935 38.028 37.8279C38.5776 35.7795 38.5056 33.0231 37.8228 29.8539L37.71 29.3307L38.2164 29.1579C43.6716 27.3075 46.8 24.5451 46.8 21.5823C46.8 18.6183 43.6716 15.8571 38.2164 14.0067L37.71 13.8339L37.824 13.3107C38.5068 10.1415 38.5788 7.38388 38.0292 5.33548C37.5828 3.66868 36.7512 2.47948 35.556 1.79788C34.842 1.39108 34.0224 1.18468 33.1188 1.18468C30.7056 1.18468 27.6096 2.74708 24.3984 5.58388L24.0012 5.93548L23.604 5.58388C20.3928 2.74588 17.2956 1.18228 14.88 1.18228L14.88 1.18228ZM14.8812 40.7823C14.1888 40.7823 13.5684 40.6299 13.0392 40.3275C12.132 39.8091 11.4888 38.8635 11.1276 37.5171C10.638 35.6847 10.7016 33.1851 11.31 30.2907L11.4396 29.6751L12.048 29.8335C13.9572 30.3315 16.0284 30.7059 18.21 30.9435L18.4704 30.9723L18.6276 31.1823C19.9152 32.9235 21.288 34.5339 22.704 35.9691L23.1528 36.4239L22.6716 36.8439C19.7568 39.3831 16.9896 40.7823 14.8812 40.7823L14.8812 40.7823ZM12.3636 31.1499C11.802 33.5979 11.7852 35.6823 12.288 37.2063C12.6216 38.2155 13.014 38.9319 13.6332 39.2847C15.186 40.1715 18.2088 39.0003 21.4008 36.3495C20.1612 35.0535 18.9588 33.6291 17.82 32.1063C15.9084 31.8879 14.076 31.5663 12.3636 31.1499L12.3636 31.1499ZM33.1188 40.7787C31.0104 40.7787 28.2432 39.3807 25.3296 36.8427L24.8484 36.4239L25.2972 35.9691C26.7192 34.5267 28.0896 32.9175 29.37 31.1835L29.526 30.9723L29.7876 30.9435C31.9704 30.7047 34.0452 30.3315 35.952 29.8335L36.5616 29.6751L36.69 30.2907C37.2984 33.1875 37.362 35.6859 36.8712 37.5171C36.51 38.8623 35.868 39.8067 34.9644 40.3227C34.4316 40.6263 33.8112 40.7787 33.1188 40.7787L33.1188 40.7787ZM26.5992 36.3495C29.7912 38.9979 32.8044 40.1703 34.3692 39.2811C34.9848 38.9307 35.376 38.2143 35.7096 37.2075C36.216 35.6823 36.1956 33.5979 35.6352 31.1511C33.9228 31.5675 32.0904 31.8879 30.1764 32.1075C29.0448 33.6243 27.8436 35.0475 26.5992 36.3495L26.5992 36.3495ZM24 35.6163L23.574 35.1843C22.6464 34.2459 21.7428 33.2343 20.8884 32.1747L20.0484 31.1343L21.3828 31.1979C23.1 31.2795 24.9 31.2795 26.616 31.1979L27.9492 31.1343L27.1116 32.1735C26.2596 33.2283 25.3572 34.2411 24.4272 35.1819L24 35.6163L24 35.6163ZM22.6776 32.4471C23.1084 32.9475 23.5512 33.4335 24 33.9015C24.4488 33.4311 24.8892 32.9463 25.3212 32.4471C24.4464 32.4699 23.5524 32.4699 22.6776 32.4471L22.6776 32.4471ZM24 30.0639C22.4592 30.0639 20.9148 29.9979 19.4076 29.8671L19.1292 29.8431L18.9684 29.6139C18.1032 28.3815 17.286 27.1071 16.5384 25.8291C15.7956 24.5559 15.0876 23.2143 14.4348 21.8391L14.3124 21.5823L14.4348 21.3255C15.0876 19.9503 15.7956 18.6075 16.5384 17.3355C17.2944 16.0419 18.09 14.8047 18.9708 13.5495L19.1316 13.3215L19.41 13.2975C22.4196 13.0359 25.5804 13.0359 28.5888 13.2975L28.8672 13.3215L29.028 13.5507C29.9112 14.8107 30.7068 16.0491 31.458 17.3355C32.208 18.6195 32.916 19.9611 33.5616 21.3267L33.6828 21.5823L33.5616 21.8391C32.916 23.2035 32.208 24.5463 31.458 25.8303C30.7068 27.1167 29.9112 28.3551 29.028 29.6151L28.8672 29.8443L28.5888 29.8683C27.084 29.9979 25.5408 30.0639 24 30.0639L24 30.0639ZM19.7892 28.6959C22.56 28.9203 25.4412 28.9203 28.2072 28.6959C29.0076 27.5427 29.7336 26.4039 30.4236 25.2243C31.1088 24.0519 31.758 22.8279 32.3556 21.5823C31.758 20.3367 31.1088 19.1127 30.4236 17.9403C29.7348 16.7607 29.0076 15.6219 28.2072 14.4687C25.44 14.2443 22.554 14.2443 19.7916 14.4687C18.9936 15.6183 18.2664 16.7559 17.5728 17.9415C16.8948 19.1031 16.2444 20.3271 15.6408 21.5823C16.2444 22.8363 16.8936 24.0603 17.5728 25.2243C18.258 26.3943 19.0032 27.5607 19.7892 28.6959L19.7892 28.6959ZM30.4524 29.6811L31.1808 28.5555C31.6284 27.8643 32.0688 27.1611 32.4948 26.4351C32.934 25.6839 33.3432 24.9291 33.7368 24.1755L34.344 23.0139L34.8264 24.2331C35.3124 25.4607 35.7396 26.7051 36.0948 27.9303L36.2664 28.5231L35.67 28.6779C34.4496 28.9947 33.1416 29.2635 31.7784 29.4759L30.4524 29.6811L30.4524 29.6811ZM34.1748 25.9022C33.966 26.2814 33.7512 26.6618 33.5304 27.041C33.3288 27.3866 33.1224 27.7262 32.9148 28.0622C33.5484 27.9422 34.1652 27.8114 34.7628 27.6674C34.5828 27.0794 34.386 26.4902 34.1748 25.9022L34.1748 25.9022ZM17.5452 29.6811L16.2192 29.4747C14.856 29.2623 13.5468 28.9935 12.33 28.6767L11.7336 28.5219L11.9052 27.9303C12.258 26.7099 12.684 25.4667 13.1724 24.2343L13.6548 23.0139L14.262 24.1779C14.6544 24.9315 15.0636 25.6851 15.5028 26.4363C15.9276 27.1623 16.3692 27.8655 16.8168 28.5567L17.5452 29.6811L17.5452 29.6811ZM13.2348 27.665C13.83 27.8078 14.4468 27.9398 15.0792 28.0598C14.8716 27.725 14.6664 27.3854 14.4648 27.0398C14.2428 26.6618 14.0304 26.2826 13.8216 25.9022C13.6104 26.4926 13.4148 27.0806 13.2348 27.665L13.2348 27.665ZM37.416 28.1847L37.2408 27.5787C36.7056 25.7211 35.9892 23.7867 35.1144 21.8283L35.004 21.5823L35.1144 21.3375C35.9892 19.3815 36.7056 17.4459 37.242 15.5871L37.4172 14.9811L38.0148 15.1863C42.7644 16.8195 45.6 19.2111 45.6 21.5823C45.6 23.9547 42.7644 26.3451 38.0136 27.9795L37.416 28.1847L37.416 28.1847ZM36.318 21.5823C37.074 23.2947 37.7088 24.9903 38.2128 26.6331C41.9916 25.2291 44.4 23.2767 44.4 21.5823C44.4 19.8879 41.9916 17.9355 38.2128 16.5315C37.7088 18.1767 37.0728 19.8711 36.318 21.5823L36.318 21.5823ZM10.5804 28.1835L9.984 27.9783C5.2356 26.3439 2.4 23.9535 2.4 21.5823C2.4 19.2111 5.2356 16.8207 9.984 15.1863L10.5804 14.9811L10.7556 15.5871C11.2944 17.4519 12.0096 19.3875 12.882 21.3375L12.9936 21.5823L12.8832 21.8271C12.0096 23.7771 11.2956 25.7127 10.7568 27.5775L10.5804 28.1835L10.5804 28.1835ZM9.786 16.5315C6.0072 17.9367 3.6 19.8891 3.6 21.5823C3.6 23.2755 6.0072 25.2279 9.786 26.6331C10.2912 24.9831 10.926 23.2887 11.6796 21.5823C10.926 19.8759 10.2912 18.1815 9.786 16.5315L9.786 16.5315ZM13.6536 20.1531L13.1712 18.9327C12.684 17.7003 12.2568 16.4571 11.904 15.2367L11.7324 14.6451L12.3288 14.4903C13.548 14.1735 14.856 13.9047 16.2192 13.6923L17.5464 13.4859L16.8144 14.6127C16.3668 15.3027 15.9264 16.0059 15.5004 16.7319C15.0612 17.4819 14.652 18.2367 14.2596 18.9903L13.6536 20.1531L13.6536 20.1531ZM13.2348 15.4995C13.4136 16.0839 13.6104 16.6731 13.8216 17.2623C14.0304 16.8831 14.244 16.5039 14.4648 16.1247C14.6664 15.7803 14.8716 15.4407 15.0792 15.1047C14.4468 15.2235 13.83 15.3567 13.2348 15.4995L13.2348 15.4995ZM34.344 20.1531L33.7368 18.9903C33.3432 18.2355 32.934 17.4819 32.4948 16.7307C32.07 16.0047 31.6284 15.3015 31.1808 14.6103L30.4524 13.4847L31.7772 13.6911C33.1416 13.9035 34.452 14.1723 35.6688 14.4903L36.2652 14.6451L36.0936 15.2379C35.7384 16.4619 35.3124 17.7063 34.8252 18.9351L34.344 20.1531L34.344 20.1531ZM32.916 15.1035C33.1236 15.4395 33.33 15.7791 33.5316 16.1247C33.7536 16.5039 33.9672 16.8831 34.176 17.2635C34.3872 16.6743 34.584 16.0851 34.764 15.4995C34.1676 15.3555 33.5496 15.2235 32.916 15.1035L32.916 15.1035ZM36.558 13.4907L35.9496 13.3323C34.0452 12.8343 31.9716 12.4611 29.7852 12.2223L29.5236 12.1935L29.3676 11.9823C28.0836 10.2435 26.7132 8.63307 25.2948 7.19787L24.846 6.74307L25.3272 6.32307C29.202 2.94987 32.8188 1.62027 34.9596 2.84187C35.8656 3.35907 36.5076 4.30347 36.8688 5.64747C37.3584 7.47987 37.2948 9.97947 36.6864 12.8751L36.558 13.4907L36.558 13.4907ZM30.1764 11.057C32.0928 11.2766 33.924 11.5982 35.6352 12.0146C36.2556 9.72625 36.3432 7.70065 35.7108 5.95705C35.3484 4.96105 34.986 4.23505 34.368 3.88225C32.8104 2.99425 29.7936 4.16545 26.6004 6.81505C27.84 8.11225 29.0412 9.53665 30.1764 11.057L30.1764 11.057ZM11.4408 13.4907L11.3112 12.8751C10.7016 9.97947 10.638 7.48107 11.1288 5.64867C11.49 4.30107 12.132 3.35547 13.038 2.83947C15.1848 1.61547 18.7992 2.94867 22.674 6.32427L23.1564 6.74427L22.7064 7.19907C21.2856 8.63547 19.9152 10.2459 18.6312 11.9835L18.4752 12.1947L18.2136 12.2235C16.032 12.4623 13.9572 12.8355 12.0492 13.3335L11.4408 13.4907L11.4408 13.4907ZM14.88 3.58228C14.3988 3.58228 13.9788 3.68188 13.6308 3.88108C13.014 4.23268 12.702 4.98028 12.288 5.95828C11.64 7.48828 11.7492 9.57148 12.3636 12.0147C14.0772 11.5983 15.9084 11.2767 17.8224 11.0571C18.9576 9.53668 20.16 8.11348 21.402 6.81628C18.9192 4.75468 16.5636 3.58228 14.88 3.58228L14.88 3.58228ZM20.0508 12.0291L20.8896 10.9899C21.7416 9.93387 22.6452 8.92227 23.574 7.98147L24 7.54948L24.426 7.98147C25.3584 8.92587 26.2608 9.93748 27.1092 10.9887L27.9456 12.0279L26.6136 11.9655C24.8976 11.8851 23.0976 11.8851 21.3828 11.9655L20.0508 12.0291L20.0508 12.0291ZM24 10.7007C24.444 10.7007 24.8844 10.7067 25.3212 10.7175C24.8928 10.2195 24.45 9.73466 24.0012 9.26426C23.5524 9.73346 23.1108 10.2183 22.68 10.7175C23.1168 10.7067 23.556 10.7007 24 10.7007L24 10.7007Z" id="Shape" fill="#4788C7" fill-rule="evenodd" stroke="none" />
    </g>
  </g>
</svg>