<?xml version="1.0" encoding="utf-8"?>
<svg width="48px" height="48px" viewBox="0 0 48 48" version="1.1" xmlns:xlink="http://www.w3.org/1999/xlink" xmlns="http://www.w3.org/2000/svg">
  <defs>
    <path d="M48 0L48 0L48 48L0 48L0 0L48 0Z" id="path_1" />
    <clipPath id="clip_1">
      <use xlink:href="#path_1" clip-rule="evenodd" fill-rule="evenodd" />
    </clipPath>
  </defs>
  <g id="Express Js" clip-path="url(#clip_1)">
    <path d="M48 0L48 0L48 48L0 48L0 0L48 0Z" id="Express-Js" fill="none" stroke="none" />
    <path d="M47.7399 10.56L46.9239 10.56C45.9149 10.56 44.9645 11.0304 44.3511 11.831L35.9991 22.7529L27.6471 11.831C27.0355 11.0304 26.0842 10.56 25.0762 10.56L24.2602 10.56L34.7923 24.3321L24.0346 38.4L24.8506 38.4C25.8595 38.4 26.8099 37.9296 27.4224 37.1289L36 25.9123L44.5776 37.1289C45.1901 37.9296 46.1405 38.4 47.1495 38.4L47.9655 38.4L37.2077 24.3321L47.7399 10.56L47.7399 10.56ZM20.4374 32.8723C17.9856 36.5981 13.1587 38.5075 8.544 36.8237C4.48416 35.3424 1.92 31.3066 1.92 26.9846L1.92 25.92L13.44 25.92L13.44 25.92L24 25.92L24 21.9514C24 15.7066 19.3747 10.2394 13.1568 9.65472C6.02208 8.98368 0 14.6016 0 21.6L0 26.9501C0 32.1062 3.0864 36.8995 7.93824 38.6458C14.2771 40.9267 20.9443 37.5226 23.1984 31.68C23.1984 31.68 23.1984 31.68 23.1984 31.68L22.5859 31.68C21.7114 31.68 20.9174 32.1418 20.4374 32.8723L20.4374 32.8723ZM1.92001 21.6C1.92001 16.0416 6.44161 11.52 12 11.52C17.5584 11.52 22.08 16.0416 22.08 21.6L22.08 24L1.92001 24L1.92001 21.6L1.92001 21.6Z" id="Shape" fill="#000000" fill-rule="evenodd" stroke="none" />
  </g>
</svg>