<?xml version="1.0" encoding="utf-8"?>
<svg width="48px" height="48px" viewBox="0 0 48 48" version="1.1" xmlns:xlink="http://www.w3.org/1999/xlink" xmlns="http://www.w3.org/2000/svg">
  <defs>
    <path d="M48 0L48 0L48 48L0 48L0 0L48 0Z" id="path_1" />
    <clipPath id="clip_1">
      <use xlink:href="#path_1" clip-rule="evenodd" fill-rule="evenodd" />
    </clipPath>
  </defs>
  <g id="CSS3" clip-path="url(#clip_1)">
    <path d="M48 0L48 0L48 48L0 48L0 0L48 0Z" id="CSS3" fill="none" stroke="none" />
    <path d="M41 5L7 5L10 39L24 43L38 39L41 5L41 5L41 5Z" id="Shape" fill="#0277BD" stroke="none" />
    <path d="M24 8L24 39.9L35.2 36.7L37.7 8L24 8Z" id="Shape" fill="#039BE5" stroke="none" />
    <path d="M33.1 13L24 13L24 17L28.9 17L28.6 21L24 21L24 25L28.4 25L28.1 29.5L24 30.9L24 35.1L31.9 32.5L32.6 21L32.6 21L33.1 13Z" id="Shape" fill="#FFFFFF" stroke="none" />
    <path d="M24 13L24 17L15.1 17L14.8 13L24 13L24 13ZM19.4 21L19.6 25L24 25L24 21L19.4 21L19.4 21ZM19.8 27L15.8 27L16.1 32.5L24 35.1L24 30.9L19.9 29.5L19.8 27L19.8 27Z" id="Shape" fill="#EEEEEE" fill-rule="evenodd" stroke="none" />
  </g>
</svg>