<?xml version="1.0" encoding="utf-8"?>
<svg width="48px" height="48px" viewBox="0 0 48 48" version="1.1" xmlns:xlink="http://www.w3.org/1999/xlink" xmlns="http://www.w3.org/2000/svg">
  <defs>
    <path d="M48 0L48 0L48 48L0 48L0 0L48 0Z" id="path_1" />
    <clipPath id="clip_1">
      <use xlink:href="#path_1" clip-rule="evenodd" fill-rule="evenodd" />
    </clipPath>
  </defs>
  <g id="Java" clip-path="url(#clip_1)">
    <path d="M48 0L48 0L48 48L0 48L0 0L48 0Z" id="Java" fill="none" stroke="none" />
    <path d="M23.65 24.898C22.652 23.289 21.928 21.955 20.925 19.443C19.229 15.2 31.24 11.366 26.37 3.99899C28.481 9.08799 18.793 12.234 17.893 16.472C17.07 20.37 23.645 24.898 23.65 24.898L23.65 24.898Z" id="Shape" fill="#F44336" stroke="none" />
    <path d="M23.878 17.27C23.686 19.786 26.107 21.127 26.177 22.965C26.233 24.461 24.73 25.708 24.73 25.708C24.73 25.708 27.458 25.172 28.309 22.89C29.254 20.356 26.475 18.621 26.761 16.592C27.028 14.654 32.792 11.049 32.792 11.049C32.792 11.049 24.311 11.611 23.878 17.27L23.878 17.27Z" id="Shape" fill="#F44336" stroke="none" />
    <path d="M32.0835 25.055C33.8374 24.661 35.3164 25.7779 35.3164 27.0649C35.3164 29.9658 31.2955 32.7078 31.2955 32.7078C31.2955 32.7078 37.5203 31.9658 37.5203 27.2029C37.5203 24.053 34.4634 23.266 32.0835 25.055L32.0835 25.055ZM29.1285 27.3949C29.1285 27.3949 31.0695 26.0119 31.5865 25.493C26.8236 26.5039 15.9489 26.6399 15.9489 25.762C15.9489 24.953 19.4558 24.124 19.4558 24.124C19.4558 24.124 11.683 24.012 11.683 26.3049C11.683 28.6949 21.8577 28.8659 29.1285 27.3949L29.1285 27.3949ZM27.9347 29.571C23.4258 31.0699 15.121 30.591 17.5809 28.578C16.3829 28.578 14.607 29.541 14.607 30.467C14.607 32.3239 23.5888 33.7579 30.2366 31.0389L27.9347 29.571L27.9347 29.571ZM18.686 32.739C17.05 32.739 15.991 33.793 15.991 34.5609C15.991 36.9519 25.7508 37.1929 29.6177 34.7659L27.1597 33.134C24.2708 34.4039 17.014 34.5789 18.686 32.739L18.686 32.739ZM36.2803 36.632C36.2803 35.696 35.2253 35.255 34.8474 35.044C37.0753 40.4169 12.5309 39.9999 12.5309 36.8279C12.5309 36.107 14.3379 35.401 16.0078 35.735L14.5879 34.896C11.2599 34.374 9 35.837 9 37.0169C9 42.5198 36.2803 42.2548 36.2803 36.632L36.2803 36.632ZM38.9993 38.604C34.8535 42.6989 24.3407 44.1909 13.769 41.6609C24.3407 46.1638 38.9493 43.6279 38.9993 38.604L38.9993 38.604Z" id="Group" fill="#1565C0" fill-rule="evenodd" stroke="none" />
  </g>
</svg>