<?xml version="1.0" encoding="utf-8"?>
<svg width="48px" height="48px" viewBox="0 0 48 48" version="1.1" xmlns:xlink="http://www.w3.org/1999/xlink" xmlns="http://www.w3.org/2000/svg">
  <defs>
    <path d="M48 0L48 0L48 48L0 48L0 0L48 0Z" id="path_1" />
    <clipPath id="clip_1">
      <use xlink:href="#path_1" clip-rule="evenodd" fill-rule="evenodd" />
    </clipPath>
  </defs>
  <g id="Inkscape 2" clip-path="url(#clip_1)">
    <path d="M48 0L48 0L48 48L0 48L0 0L48 0Z" id="Inkscape-2" fill="none" stroke="none" />
    <path d="M44.265 20.931L27.505 3.502C25.425 1.499 22.007 1.499 20.082 3.502L3.908 20.327C-2.223 26.554 8.065 26.054 11.721 28.413C13.407 29.529 6.753 30.972 8.201 32.444C9.612 33.925 16.277 35.259 17.688 36.694C19.099 38.166 14.862 39.733 16.282 41.205C17.657 42.677 20.705 41.275 21.301 44.622C21.732 47.1 27.08 45.855 29.591 43.743C31.158 42.39 26.851 42.391 28.262 40.91C29.527 39.612 30.736 39.035 31.836 38.679C33.806 38.03 36.056 38.175 36.89 36.017C37.596 34.225 31.624 32.823 33.236 31.671C37.084 28.92 50.79 27.551 44.265 20.931L44.265 20.931ZM25.717 32.904C23.591 33.636 13.85 28.956 16.407 28.956C16.847 28.957 31.261 31.021 25.717 32.904L25.717 32.904ZM38.667 37.98C36.82 39.884 38.988 41.879 40.795 40.564C41.278 40.201 40.756 38.433 38.667 37.98L38.667 37.98ZM40.021 36.134C40.021 37.033 46.334 37.546 45.986 35.92C45.483 33.181 40.719 33.395 40.021 36.134L40.021 36.134Z" id="Shape" fill="#212121" fill-rule="evenodd" stroke="none" />
    <path d="M9.552 41.421C11.029 42.976 13.263 41.081 13.982 38.894C12.545 36.61 7.237 39.04 9.552 41.421L9.552 41.421Z" id="Shape" fill="#212121" stroke="none" />
    <path d="M26.77 5.59L22.29 13.18L14.35 26.64C12.8 26.05 11.14 25.69 9.59 25.41C8.99 25.22 8.38 25.05 7.77 24.89C6.63 24.58 4.56 24.01 4.03 23.52C4.1 23.31 4.37 22.74 5.38 21.71L13.06 13.73L21.56 4.89C22.11 4.32 22.89 4 23.77 4C24.65 4 25.51 4.33 26.13 4.92L26.77 5.59L26.77 5.59Z" id="Shape" fill="#424242" stroke="none" />
    <path d="M33.07 12.13C33.04 12.23 32.99 12.31 32.94 12.37L29.89 9.86L29.29 13.55L26.78 12.18L22.69 14.8L22.29 13.18L21.34 9.29L19.16 14.08L13.71 14.04C13.37 14.04 13.16 13.92 13.06 13.73L21.56 4.89C22.11 4.32 22.89 4 23.77 4C24.65 4 25.51 4.33 26.13 4.92L26.77 5.59L33.07 12.13L33.07 12.13Z" id="Shape" fill="#FAFAFA" stroke="none" />
  </g>
</svg>