<?xml version="1.0" encoding="utf-8"?>
<svg width="48px" height="48px" viewBox="0 0 48 48" version="1.1" xmlns:xlink="http://www.w3.org/1999/xlink" xmlns="http://www.w3.org/2000/svg">
  <defs>
    <path d="M48 0L48 0L48 48L0 48L0 0L48 0Z" id="path_1" />
    <clipPath id="clip_1">
      <use xlink:href="#path_1" clip-rule="evenodd" fill-rule="evenodd" />
    </clipPath>
  </defs>
  <g id="Mongodb" clip-path="url(#clip_1)">
    <path d="M48 0L48 0L48 48L0 48L0 0L48 0Z" id="Mongodb" fill="none" stroke="none" />
    <path d="M42 17.3C42 37.8 24 44 24 44C24 44 6 37.8 6 17.3C6 14.8 6.2 12.7 6.4 11C6.7 8.5 8.4 6.5 10.8 5.9C13.9 5 18.8 4 24 4C29.2 4 34.1 5 37.3 5.9C39.7 6.5 41.4 8.6 41.7 11C41.8 12.7 42 14.9 42 17.3L42 17.3Z" id="Shape" fill="#5D4037" stroke="none" />
    <path d="M24 7C28.9 7 33.5 8 36.5 8.8C37.7 9.1 38.5 10.1 38.7 11.4C38.9 13.3 39 15.3 39 17.3C39 32.9 27.5 39.2 24 40.7C20.5 39.1 9 32.8 9 17.3C9 15.3 9.1 13.3 9.3 11.4C9.4 10.1 10.3 9.1 11.5 8.8C14.5 8 19.1 7 24 7M24 4C18.8 4 13.9 5 10.7 5.9C8.4 6.5 6.6 8.6 6.4 11C6.2 12.7 6 14.9 6 17.3C6 37.8 24 44 24 44C24 44 42 37.8 42 17.3C42 14.8 41.8 12.7 41.6 11C41.3 8.5 39.6 6.5 37.2 5.9C34.1 5 29.2 4 24 4L24 4L24 4Z" id="Shape" fill="#4CAF50" fill-rule="evenodd" stroke="none" />
    <path d="M23 28L25 28L25 36L23 36L23 28Z" id="Shape" fill="#DCEDC8" stroke="none" />
    <path d="M24 10C24 10 18 15 18 23C18 28.2 21.3 31.5 23 33L24 30L25 33C26.7 31.5 30 28.2 30 23C30 15 24 10 24 10L24 10Z" id="Shape" fill="#4CAF50" stroke="none" />
    <path d="M24 10C24 10 18 15 18 23C18 28.2 21.3 31.5 23 33L24 30L24 10L24 10Z" id="Shape" fill="#81C784" stroke="none" />
  </g>
</svg>